<svg width="12" height="13" viewBox="0 0 12 13" fill="none" xmlns="http://www.w3.org/2000/svg">
<circle cx="5.89691" cy="6.36505" r="5.67145" fill="#CB3B48"/>
<path d="M6.29101 6.36492L7.96631 4.38492C8.07534 4.25613 8.07534 4.04789 7.96631 3.9191C7.85734 3.79031 7.68114 3.79031 7.57217 3.9191L5.89682 5.8991L4.22152 3.9191C4.11249 3.79031 3.93635 3.79031 3.82737 3.9191C3.71835 4.04789 3.71835 4.25613 3.82737 4.38492L5.50267 6.36492L3.82737 8.34492C3.71835 8.47371 3.71835 8.68195 3.82737 8.81074C3.88168 8.87498 3.95309 8.90725 4.02445 8.90725C4.0958 8.90725 4.16716 8.87498 4.22152 8.81074L5.89682 6.83074L7.57217 8.81074C7.62653 8.87498 7.69788 8.90725 7.76924 8.90725C7.8406 8.90725 7.91195 8.87498 7.96631 8.81074C8.07534 8.68195 8.07534 8.47371 7.96631 8.34492L6.29101 6.36492Z" fill="white"/>
</svg>
