<svg width="16" height="20" viewBox="0 0 16 20" fill="none" xmlns="http://www.w3.org/2000/svg">
<path d="M10.7221 7.13745C10.4673 7.13745 10.2607 7.34398 10.2607 7.59881V16.3185C10.2607 16.5731 10.4673 16.7798 10.7221 16.7798C10.9769 16.7798 11.1835 16.5731 11.1835 16.3185V7.59881C11.1835 7.34398 10.9769 7.13745 10.7221 7.13745Z" fill="white"/>
<path d="M5.27813 7.13745C5.0233 7.13745 4.81677 7.34398 4.81677 7.59881V16.3185C4.81677 16.5731 5.0233 16.7798 5.27813 16.7798C5.53296 16.7798 5.73949 16.5731 5.73949 16.3185V7.59881C5.73949 7.34398 5.53296 7.13745 5.27813 7.13745Z" fill="white"/>
<path d="M1.31033 5.86488V17.2317C1.31033 17.9036 1.55669 18.5345 1.98704 18.9872C2.41542 19.4412 3.01158 19.6989 3.63549 19.7H12.3645C12.9886 19.6989 13.5848 19.4412 14.013 18.9872C14.4433 18.5345 14.6897 17.9036 14.6897 17.2317V5.86488C15.5452 5.6378 16.0995 4.81133 15.9851 3.93349C15.8705 3.05583 15.1227 2.3993 14.2375 2.39912H11.8754V1.82242C11.8781 1.33745 11.6863 0.871772 11.343 0.529179C10.9997 0.186766 10.5333 -0.00390417 10.0484 6.06185e-05H5.95165C5.46668 -0.00390417 5.00028 0.186766 4.65697 0.529179C4.31365 0.871772 4.1219 1.33745 4.1246 1.82242V2.39912H1.76249C0.877266 2.3993 0.129543 3.05583 0.0149251 3.93349C-0.0995129 4.81133 0.454836 5.6378 1.31033 5.86488ZM12.3645 18.7773H3.63549C2.84668 18.7773 2.23304 18.0997 2.23304 17.2317V5.90543H13.767V17.2317C13.767 18.0997 13.1533 18.7773 12.3645 18.7773ZM5.04732 1.82242C5.04425 1.58219 5.13869 1.35097 5.30917 1.18139C5.47948 1.0118 5.71124 0.918629 5.95165 0.922774H10.0484C10.2888 0.918629 10.5205 1.0118 10.6908 1.18139C10.8613 1.35079 10.9557 1.58219 10.9527 1.82242V2.39912H5.04732V1.82242ZM1.76249 3.32183H14.2375C14.6962 3.32183 15.0679 3.69362 15.0679 4.15227C15.0679 4.61092 14.6962 4.98271 14.2375 4.98271H1.76249C1.30384 4.98271 0.932052 4.61092 0.932052 4.15227C0.932052 3.69362 1.30384 3.32183 1.76249 3.32183Z" fill="white"/>
<path d="M8.00005 7.13745C7.74523 7.13745 7.5387 7.34398 7.5387 7.59881V16.3185C7.5387 16.5731 7.74523 16.7798 8.00005 16.7798C8.25488 16.7798 8.46141 16.5731 8.46141 16.3185V7.59881C8.46141 7.34398 8.25488 7.13745 8.00005 7.13745Z" fill="white"/>
</svg>