<svg width="17" height="15" viewBox="0 0 17 15" fill="none" xmlns="http://www.w3.org/2000/svg">
<path d="M15.7315 1.37191H5.97747C5.70931 0.575439 4.95596 0 4.07021 0C3.18447 0 2.43112 0.575439 2.16296 1.37191H0.64042C0.286738 1.37191 0 1.65865 0 2.01233C0 2.36601 0.286738 2.65275 0.64042 2.65275H2.163C2.43116 3.44922 3.18451 4.02466 4.07026 4.02466C4.956 4.02466 5.70935 3.44922 5.97751 2.65275H15.7316C16.0853 2.65275 16.372 2.36601 16.372 2.01233C16.372 1.65865 16.0853 1.37191 15.7315 1.37191ZM4.07021 2.74382C3.66688 2.74382 3.33872 2.41567 3.33872 2.01233C3.33872 1.60899 3.66688 1.28084 4.07021 1.28084C4.47355 1.28084 4.8017 1.60899 4.8017 2.01233C4.8017 2.41567 4.47355 2.74382 4.07021 2.74382Z" fill="white"/>
<path d="M15.7315 6.85958H14.209C13.9408 6.06311 13.1874 5.48767 12.3017 5.48767C11.416 5.48767 10.6627 6.06311 10.3945 6.85958H0.64042C0.286738 6.85958 0 7.14632 0 7.5C0 7.85368 0.286738 8.14042 0.64042 8.14042H10.3945C10.6627 8.93689 11.416 9.51233 12.3017 9.51233C13.1875 9.51233 13.9408 8.93689 14.209 8.14042H15.7316C16.0853 8.14042 16.372 7.85368 16.372 7.5C16.372 7.14632 16.0853 6.85958 15.7315 6.85958ZM12.3017 8.23149C11.8984 8.23149 11.5703 7.90334 11.5703 7.5C11.5703 7.09666 11.8984 6.76851 12.3017 6.76851C12.7051 6.76851 13.0332 7.09666 13.0332 7.5C13.0332 7.90334 12.7051 8.23149 12.3017 8.23149Z" fill="white"/>
<path d="M15.7315 12.3473H8.72133C8.45317 11.5508 7.69982 10.9753 6.81407 10.9753C5.92833 10.9753 5.17498 11.5508 4.90682 12.3473H0.64042C0.286738 12.3473 0 12.634 0 12.9877C0 13.3414 0.286738 13.6281 0.64042 13.6281H4.90682C5.17498 14.4246 5.92833 15 6.81407 15C7.69982 15 8.45317 14.4246 8.72133 13.6281H15.7316C16.0853 13.6281 16.372 13.3414 16.372 12.9877C16.372 12.634 16.0853 12.3473 15.7315 12.3473ZM6.81407 13.7192C6.41074 13.7192 6.08258 13.3911 6.08258 12.9877C6.08258 12.5844 6.41074 12.2562 6.81407 12.2562C7.21741 12.2562 7.54556 12.5843 7.54556 12.9877C7.54556 13.391 7.21741 13.7192 6.81407 13.7192Z" fill="white"/>
</svg>