<svg width="16" height="16" viewBox="0 0 16 16" fill="none" xmlns="http://www.w3.org/2000/svg">
<path fill-rule="evenodd" clip-rule="evenodd" d="M13.4749 2.73052C12.0916 1.33893 10.2521 0.572227 8.29233 0.571411C4.25406 0.571411 0.967497 3.87392 0.965873 7.93297C0.965331 9.23052 1.30265 10.4971 1.94381 11.6136L0.904419 15.4286L4.78829 14.4048C5.85845 14.9914 7.06326 15.3005 8.28936 15.3009H8.29242C12.3302 15.3009 15.6172 11.9981 15.6187 7.93886C15.6195 5.97163 14.8582 4.12202 13.4749 2.73052ZM8.29233 14.0576H8.28981C7.19717 14.0571 6.12556 13.762 5.19049 13.2046L4.96823 13.0719L2.66348 13.6795L3.27865 11.4215L3.13382 11.19C2.52424 10.2157 2.20235 9.0896 2.20289 7.93342C2.20416 4.55964 4.93592 1.81483 8.29477 1.81483C9.92127 1.81537 11.4502 2.45267 12.5999 3.60931C13.7495 4.76594 14.3823 6.30334 14.3818 7.93841C14.3803 11.3125 11.6487 14.0576 8.29233 14.0576ZM11.6325 9.47463C11.4495 9.3825 10.5494 8.93762 10.3816 8.87614C10.2139 8.81475 10.0917 8.78419 9.96982 8.96827C9.84772 9.15235 9.49696 9.56676 9.39011 9.68946C9.28327 9.81224 9.1766 9.82765 8.9935 9.73552C8.81041 9.64348 8.22059 9.44915 7.52132 8.82246C6.97717 8.33468 6.6098 7.73229 6.50295 7.54821C6.39629 7.36395 6.50205 7.27399 6.58327 7.17279C6.78143 6.92551 6.97987 6.66625 7.04088 6.54356C7.10197 6.42078 7.07138 6.31332 7.02553 6.22128C6.97987 6.12924 6.61377 5.22379 6.46126 4.85535C6.31254 4.4968 6.16175 4.54523 6.04931 4.5396C5.94265 4.53425 5.82055 4.53316 5.69846 4.53316C5.57645 4.53316 5.3781 4.57914 5.21025 4.7634C5.0425 4.94758 4.56963 5.39255 4.56963 6.29799C4.56963 7.20344 5.22559 8.07815 5.3171 8.20093C5.4086 8.32371 6.60799 10.1818 8.4443 10.9785C8.88106 11.1682 9.22199 11.2813 9.48793 11.3661C9.9265 11.5061 10.3255 11.4863 10.6409 11.439C10.9927 11.3861 11.7239 10.9939 11.8766 10.5643C12.0291 10.1345 12.0291 9.76626 11.9833 9.68946C11.9376 9.61274 11.8155 9.56676 11.6325 9.47463Z" fill="#BD2D43"/>
</svg>