<svg width="16" height="16" viewBox="0 0 16 16" fill="none" xmlns="http://www.w3.org/2000/svg">
<path d="M7.92324 0.293028C4.73422 0.293028 1.70593 0.00956935 0.549242 2.97579C0.0714601 4.20089 0.140844 5.79194 0.140844 8.07014C0.140844 10.0693 0.0767298 11.9482 0.549242 13.1636C1.70329 16.1316 4.75618 15.8473 7.92148 15.8473C10.9752 15.8473 14.1239 16.1649 15.2946 13.1636C15.7733 11.9262 15.703 10.3589 15.703 8.07014C15.703 5.03196 15.8707 3.07057 14.3961 1.59799C12.9031 0.106103 10.8839 0.293028 7.91972 0.293028H7.92324ZM7.22589 1.69452C13.8779 1.68399 14.7246 0.945071 14.2574 11.2101C14.0914 14.8407 11.3248 14.4422 7.92411 14.4422C1.72349 14.4422 1.54521 14.265 1.54521 8.06663C1.54521 1.79632 2.03704 1.69803 7.22589 1.69277V1.69452ZM12.0775 2.98544C11.5619 2.98544 11.1439 3.40317 11.1439 3.91831C11.1439 4.43345 11.5619 4.85118 12.0775 4.85118C12.593 4.85118 13.0111 4.43345 13.0111 3.91831C13.0111 3.40317 12.593 2.98544 12.0775 2.98544ZM7.92324 4.07627C5.71613 4.07627 3.92709 5.86478 3.92709 8.07014C3.92709 10.2755 5.71613 12.0631 7.92324 12.0631C10.1303 12.0631 11.9185 10.2755 11.9185 8.07014C11.9185 5.86478 10.1303 4.07627 7.92324 4.07627ZM7.92324 5.47777C11.3529 5.47777 11.3573 10.6625 7.92324 10.6625C4.49445 10.6625 4.48918 5.47777 7.92324 5.47777Z" fill="#BD2D43"/>
</svg>