<svg width="16" height="14" viewBox="0 0 16 14" fill="none" xmlns="http://www.w3.org/2000/svg">
<path d="M0.269537 6.79636L3.78416 8.10813L5.14454 12.4831C5.23158 12.7633 5.57422 12.8669 5.80164 12.6809L7.76075 11.0838C7.96611 10.9165 8.25861 10.9081 8.47323 11.0639L12.0068 13.6294C12.2501 13.8062 12.5947 13.6729 12.6557 13.3789L15.2442 0.927725C15.3108 0.606596 14.9953 0.3387 14.6895 0.456963L0.265419 6.02135C-0.0905382 6.15863 -0.0874367 6.66259 0.269537 6.79636ZM4.9253 7.40984L11.7942 3.17929C11.9176 3.10348 12.0446 3.2704 11.9386 3.36873L6.26981 8.63818C6.07056 8.82366 5.94202 9.07187 5.90562 9.3413L5.71251 10.7723C5.68694 10.9634 5.41853 10.9824 5.36581 10.7975L4.62314 8.18791C4.53807 7.89027 4.66203 7.57234 4.9253 7.40984Z" fill="#BD2D43"/>
</svg>