<svg width="22" height="22" viewBox="0 0 22 22" fill="none" xmlns="http://www.w3.org/2000/svg">
<path d="M20.2347 14.4405C18.8878 14.4405 17.5652 14.2298 16.312 13.8157C15.6979 13.6062 14.9429 13.7984 14.5681 14.1833L12.0945 16.0507C9.22571 14.5193 7.45861 12.7528 5.94818 9.90556L7.76059 7.49633C8.23147 7.02608 8.40037 6.33915 8.19801 5.69462C7.78208 4.43478 7.57079 3.11289 7.57079 1.76539C7.57084 0.791943 6.7789 0 5.80552 0H1.76532C0.791941 0 0 0.791943 0 1.76533C0 12.9229 9.07715 22 20.2347 22C21.2081 22 22 21.2081 22 20.2347V16.2058C21.9999 15.2324 21.208 14.4405 20.2347 14.4405Z" fill="white"/>
</svg>
