<svg width="24" height="24" viewBox="0 0 24 24" fill="none" xmlns="http://www.w3.org/2000/svg">
<path d="M12.0003 0.84214C7.08512 0.84214 2.41766 0.423454 0.634874 4.80475C-0.101523 6.61431 0.00541729 8.96439 0.00541729 12.3294C0.00541729 15.2823 -0.0934008 18.0575 0.634874 19.8528C2.4136 24.2367 7.11896 23.8167 11.9976 23.8167C16.7043 23.8167 21.5572 24.286 23.3617 19.8528C24.0994 18.0251 23.9911 15.71 23.9911 12.3294C23.9911 7.84185 24.2497 4.94475 21.9769 2.76965C19.6756 0.566041 16.5635 0.84214 11.9949 0.84214H12.0003ZM10.9255 2.91224C21.1782 2.89668 22.4831 1.80525 21.763 16.9674C21.5071 22.3299 17.2431 21.7414 12.0016 21.7414C2.44473 21.7414 2.16994 21.4796 2.16994 12.3243C2.16994 3.0626 2.92799 2.91742 10.9255 2.90965V2.91224ZM18.4032 4.81901C17.6086 4.81901 16.9642 5.43602 16.9642 6.19692C16.9642 6.95781 17.6086 7.57482 18.4032 7.57482C19.1978 7.57482 19.8421 6.95781 19.8421 6.19692C19.8421 5.43602 19.1978 4.81901 18.4032 4.81901ZM12.0003 6.43024C8.59852 6.43024 5.84109 9.07198 5.84109 12.3294C5.84109 15.5869 8.59852 18.2273 12.0003 18.2273C15.4021 18.2273 18.1581 15.5869 18.1581 12.3294C18.1581 9.07198 15.4021 6.43024 12.0003 6.43024ZM12.0003 8.50034C17.2864 8.50034 17.2932 16.1585 12.0003 16.1585C6.71557 16.1585 6.70744 8.50034 12.0003 8.50034Z" fill="white"/>
</svg>
