<svg width="45" height="52" viewBox="0 0 45 52" fill="none" xmlns="http://www.w3.org/2000/svg">
<g filter="url(#filter0_d)">
<path d="M26.5585 18.3886C23.2261 15.0562 17.8322 15.0558 14.4994 18.3886C11.1671 21.7209 11.1666 27.1149 14.4994 30.4477L20.0783 36.0266C20.3273 36.2755 20.7308 36.2754 20.9797 36.0266L26.5585 30.4477C29.8909 27.1154 29.8914 21.7214 26.5585 18.3886ZM25.6572 29.5464L20.529 34.6746L15.4008 29.5464C12.5731 26.7187 12.5731 22.1177 15.4008 19.29C18.2285 16.4623 22.8294 16.4622 25.6572 19.29C28.4849 22.1176 28.4849 26.7187 25.6572 29.5464Z" fill="#CB3B48"/>
<path d="M20.5291 20.6062C18.4223 20.6062 16.7172 22.311 16.7172 24.4181C16.7172 26.5248 18.4221 28.2299 20.5291 28.2299C22.6358 28.2299 24.341 26.525 24.341 24.4181C24.341 22.3114 22.6361 20.6062 20.5291 20.6062ZM22.3231 26.2121C22.2987 26.2121 21.698 26.9552 20.5291 26.9552C19.1268 26.9552 17.9918 25.8205 17.9918 24.4181C17.9918 23.0158 19.1266 21.8809 20.5291 21.8809C22.807 21.8809 23.9018 24.6335 22.3231 26.2121Z" fill="#CB3B48"/>
</g>
<defs>
<filter id="filter0_d" x="-3.50724" y="0.38192" width="48.0724" height="51.3386" filterUnits="userSpaceOnUse" color-interpolation-filters="sRGB">
<feFlood flood-opacity="0" result="BackgroundImageFix"/>
<feColorMatrix in="SourceAlpha" type="matrix" values="0 0 0 0 0 0 0 0 0 0 0 0 0 0 0 0 0 0 127 0" result="hardAlpha"/>
<feOffset/>
<feGaussianBlur stdDeviation="7.75362"/>
<feColorMatrix type="matrix" values="0 0 0 0 0.741176 0 0 0 0 0.176471 0 0 0 0 0.262745 0 0 0 1 0"/>
<feBlend mode="normal" in2="BackgroundImageFix" result="effect1_dropShadow"/>
<feBlend mode="normal" in="SourceGraphic" in2="effect1_dropShadow" result="shape"/>
</filter>
</defs>
</svg>