<svg width="44" height="48" viewBox="0 0 44 48" fill="none" xmlns="http://www.w3.org/2000/svg">
<g filter="url(#filter0_d)">
<path d="M24.2624 25.9972C23.9445 25.6661 23.561 25.4891 23.1545 25.4891C22.7514 25.4891 22.3646 25.6628 22.0336 25.9939L20.9978 27.0264C20.9126 26.9805 20.8274 26.9379 20.7455 26.8952C20.6275 26.8362 20.516 26.7805 20.421 26.7215C19.4508 26.1053 18.5691 25.3023 17.7234 24.2633C17.3137 23.7454 17.0384 23.3095 16.8385 22.867C17.1072 22.6212 17.3563 22.3655 17.5989 22.1197C17.6907 22.0279 17.7824 21.9328 17.8742 21.8411C18.5625 21.1528 18.5625 20.2612 17.8742 19.5729L16.9794 18.6781C16.8778 18.5765 16.7729 18.4716 16.6746 18.3667C16.4779 18.1635 16.2714 17.9537 16.0584 17.7571C15.7404 17.4424 15.3602 17.2753 14.9604 17.2753C14.5605 17.2753 14.1737 17.4424 13.846 17.7571C13.8427 17.7604 13.8427 17.7604 13.8394 17.7636L12.725 18.8879C12.3054 19.3074 12.0662 19.8187 12.0137 20.412C11.9351 21.3691 12.2169 22.2606 12.4333 22.844C12.9643 24.2764 13.7575 25.6038 14.9407 27.0264C16.3763 28.7406 18.1037 30.0943 20.0768 31.0481C20.8307 31.4053 21.8369 31.8281 22.9612 31.9003C23.03 31.9035 23.1021 31.9068 23.1677 31.9068C23.9248 31.9068 24.5607 31.6348 25.0589 31.0939C25.0622 31.0874 25.0687 31.0841 25.072 31.0776C25.2424 30.8711 25.4391 30.6842 25.6456 30.4843C25.7865 30.3499 25.9307 30.209 26.0717 30.0615C26.3962 29.7239 26.5666 29.3306 26.5666 28.9274C26.5666 28.521 26.3929 28.1309 26.0618 27.8032L24.2624 25.9972ZM25.4358 29.4486C25.4325 29.4486 25.4325 29.4518 25.4358 29.4486C25.308 29.5862 25.1769 29.7108 25.0359 29.8484C24.8229 30.0516 24.6066 30.2647 24.4033 30.504C24.0723 30.858 23.6823 31.0251 23.1709 31.0251C23.1218 31.0251 23.0693 31.0251 23.0202 31.0218C22.0467 30.9596 21.1421 30.5793 20.4636 30.2549C18.6084 29.3568 16.9794 28.0818 15.6257 26.4659C14.508 25.1187 13.7607 23.8732 13.2658 22.5359C12.961 21.7198 12.8495 21.0839 12.8987 20.4841C12.9315 20.1006 13.079 19.7827 13.351 19.5106L14.4687 18.393C14.6293 18.2422 14.7998 18.1602 14.9669 18.1602C15.1734 18.1602 15.3406 18.2848 15.4455 18.3897C15.4487 18.393 15.452 18.3962 15.4553 18.3995C15.6552 18.5863 15.8453 18.7797 16.0453 18.9862C16.1469 19.0911 16.2518 19.196 16.3566 19.3041L17.2515 20.199C17.5989 20.5464 17.5989 20.8676 17.2515 21.215C17.1564 21.3101 17.0646 21.4051 16.9696 21.4969C16.6943 21.7788 16.432 22.041 16.1469 22.2967C16.1403 22.3032 16.1338 22.3065 16.1305 22.3131C15.8486 22.5949 15.9011 22.8703 15.9601 23.0571C15.9633 23.0669 15.9666 23.0768 15.9699 23.0866C16.2026 23.6503 16.5304 24.1813 17.0286 24.8139L17.0319 24.8172C17.9365 25.9316 18.8903 26.8002 19.9424 27.4656C20.0768 27.5508 20.2145 27.6196 20.3456 27.6852C20.4636 27.7442 20.575 27.7999 20.6701 27.8589C20.6832 27.8654 20.6963 27.8753 20.7094 27.8818C20.8208 27.9375 20.9257 27.9638 21.0339 27.9638C21.3059 27.9638 21.4764 27.7933 21.5321 27.7376L22.6531 26.6166C22.7645 26.5052 22.9415 26.3708 23.148 26.3708C23.3512 26.3708 23.5184 26.4986 23.62 26.6101C23.6233 26.6134 23.6233 26.6134 23.6265 26.6166L25.4325 28.4226C25.7701 28.757 25.7701 29.1011 25.4358 29.4486Z" fill="#CB3B48"/>
<path d="M20.3816 20.071C21.2403 20.2152 22.0204 20.6216 22.6432 21.2444C23.2659 21.8671 23.6691 22.6472 23.8166 23.506C23.8526 23.7223 24.0394 23.8731 24.2525 23.8731C24.2787 23.8731 24.3017 23.8698 24.3279 23.8665C24.5704 23.8272 24.731 23.5977 24.6917 23.3552C24.5147 22.3162 24.0231 21.3689 23.2725 20.6183C22.5219 19.8677 21.5746 19.3761 20.5356 19.1991C20.2931 19.1598 20.0669 19.3204 20.0243 19.5596C19.9817 19.7989 20.139 20.0316 20.3816 20.071Z" fill="#CB3B48"/>
<path d="M27.5008 23.2275C27.2091 21.5165 26.4028 19.9596 25.1638 18.7207C23.9249 17.4817 22.368 16.6754 20.657 16.3837C20.4178 16.3411 20.1916 16.505 20.149 16.7442C20.1097 16.9868 20.2703 17.213 20.5128 17.2556C22.0402 17.5145 23.4332 18.2389 24.5411 19.3434C25.6489 20.4513 26.37 21.8443 26.6289 23.3717C26.665 23.588 26.8518 23.7388 27.0649 23.7388C27.0911 23.7388 27.114 23.7355 27.1403 23.7322C27.3795 23.6962 27.5434 23.4668 27.5008 23.2275Z" fill="#CB3B48"/>
</g>
<defs>
<filter id="filter0_d" x="-3.507" y="0.869713" width="46.5218" height="46.5443" filterUnits="userSpaceOnUse" color-interpolation-filters="sRGB">
<feFlood flood-opacity="0" result="BackgroundImageFix"/>
<feColorMatrix in="SourceAlpha" type="matrix" values="0 0 0 0 0 0 0 0 0 0 0 0 0 0 0 0 0 0 127 0" result="hardAlpha"/>
<feOffset/>
<feGaussianBlur stdDeviation="7.75362"/>
<feColorMatrix type="matrix" values="0 0 0 0 0.741176 0 0 0 0 0.176471 0 0 0 0 0.262745 0 0 0 1 0"/>
<feBlend mode="normal" in2="BackgroundImageFix" result="effect1_dropShadow"/>
<feBlend mode="normal" in="SourceGraphic" in2="effect1_dropShadow" result="shape"/>
</filter>
</defs>
</svg>