<svg width="97" height="88" viewBox="0 0 97 88" fill="none" xmlns="http://www.w3.org/2000/svg">
<g filter="url(#filter0_d)">
<path d="M65.1025 30H31.8975C30.8538 30 30 30.9692 30 32.1538V55.8461C30 57.0306 30.8538 58 31.8975 58H65.1025C66.146 58 67 57.0308 67 55.8461V32.1538C66.9999 30.9692 66.1461 30 65.1025 30ZM64.3904 31.6153L49.5915 44.2154C49.3254 44.4453 48.9169 44.5891 48.4999 44.5869C48.0829 44.5891 47.6745 44.4453 47.4084 44.2154L32.6094 31.6153H64.3904ZM56.4853 45.0468L64.5494 56.3545C64.5575 56.3659 64.5674 56.3745 64.576 56.3847H32.4239C32.4325 56.374 32.4424 56.3659 32.4505 56.3545L40.5146 45.0468C40.7617 44.7001 40.7149 44.1917 40.4088 43.9106C40.1034 43.6301 39.6555 43.6833 39.4084 44.0301L31.4231 55.2274V32.6249L46.555 45.5076C47.1238 45.9884 47.8158 46.2001 48.4998 46.2022C49.1829 46.2006 49.8755 45.9889 50.4446 45.5076L65.5766 32.6249V55.2273L57.5915 44.0301C57.3443 43.6834 56.8961 43.63 56.591 43.9106C56.2851 44.1911 56.2381 44.7001 56.4853 45.0468Z" fill="#CB3B48"/>
</g>
<defs>
<filter id="filter0_d" x="0" y="0" width="97" height="88" filterUnits="userSpaceOnUse" color-interpolation-filters="sRGB">
<feFlood flood-opacity="0" result="BackgroundImageFix"/>
<feColorMatrix in="SourceAlpha" type="matrix" values="0 0 0 0 0 0 0 0 0 0 0 0 0 0 0 0 0 0 127 0" result="hardAlpha"/>
<feOffset/>
<feGaussianBlur stdDeviation="15"/>
<feColorMatrix type="matrix" values="0 0 0 0 0.741176 0 0 0 0 0.176471 0 0 0 0 0.262745 0 0 0 1 0"/>
<feBlend mode="normal" in2="BackgroundImageFix" result="effect1_dropShadow"/>
<feBlend mode="normal" in="SourceGraphic" in2="effect1_dropShadow" result="shape"/>
</filter>
</defs>
</svg>
