<svg width="90" height="91" viewBox="0 0 90 91" fill="none" xmlns="http://www.w3.org/2000/svg">
<g filter="url(#filter0_d)">
<path d="M53.7221 48.611C53.1071 47.9706 52.3652 47.6282 51.5789 47.6282C50.799 47.6282 50.0507 47.9642 49.4103 48.6047L47.4066 50.602C47.2417 50.5133 47.0768 50.4308 46.9183 50.3484C46.69 50.2343 46.4745 50.1265 46.2906 50.0123C44.4137 48.8202 42.7079 47.2667 41.072 45.2566C40.2794 44.2548 39.7467 43.4114 39.3599 42.5554C39.8799 42.0798 40.3618 41.5852 40.831 41.1097C41.0086 40.9321 41.1861 40.7482 41.3637 40.5707C42.6953 39.2391 42.6953 37.5144 41.3637 36.1828L39.6326 34.4517C39.436 34.2551 39.2331 34.0522 39.0429 33.8493C38.6624 33.4562 38.263 33.0504 37.8508 32.6699C37.2357 32.0612 36.5002 31.7378 35.7266 31.7378C34.953 31.7378 34.2048 32.0612 33.5707 32.6699C33.5643 32.6762 33.5643 32.6762 33.558 32.6826L31.4021 34.8575C30.5904 35.6692 30.1275 36.6584 30.0261 37.8061C29.8739 39.6576 30.4192 41.3823 30.8377 42.511C31.865 45.282 33.3995 47.8501 35.6885 50.602C38.4659 53.9183 41.8075 56.5371 45.6248 58.3824C47.0832 59.0735 49.0298 59.8915 51.2048 60.031C51.3379 60.0373 51.4774 60.0437 51.6043 60.0437C53.069 60.0437 54.2992 59.5174 55.263 58.4711C55.2693 58.4585 55.282 58.4521 55.2883 58.4394C55.6181 58.0399 55.9985 57.6785 56.398 57.2917C56.6707 57.0317 56.9497 56.7591 57.2223 56.4737C57.8501 55.8206 58.1798 55.0597 58.1798 54.2798C58.1798 53.4935 57.8437 52.7389 57.2033 52.1048L53.7221 48.611ZM55.9922 55.288C55.9858 55.288 55.9858 55.2943 55.9922 55.288C55.7449 55.5543 55.4912 55.7953 55.2186 56.0616C54.8064 56.4547 54.3879 56.8669 53.9948 57.3298C53.3544 58.0146 52.5998 58.338 51.6106 58.338C51.5155 58.338 51.414 58.338 51.3189 58.3316C49.4357 58.2112 47.6856 57.4756 46.373 56.8479C42.784 55.1104 39.6326 52.6438 37.0138 49.5177C34.8515 46.9116 33.4058 44.5021 32.4483 41.915C31.8586 40.3361 31.643 39.1059 31.7381 37.9456C31.8016 37.2037 32.0869 36.5886 32.6132 36.0623L34.7754 33.9C35.0861 33.6084 35.4159 33.4498 35.7393 33.4498C36.1387 33.4498 36.4621 33.6908 36.665 33.8937C36.6714 33.9 36.6777 33.9064 36.6841 33.9127C37.0709 34.2742 37.4386 34.6483 37.8254 35.0478C38.022 35.2507 38.2249 35.4536 38.4278 35.6628L40.1589 37.3939C40.831 38.066 40.831 38.6874 40.1589 39.3596C39.975 39.5435 39.7975 39.7274 39.6136 39.9049C39.0809 40.4502 38.5737 40.9575 38.022 41.4521C38.0093 41.4648 37.9966 41.4711 37.9903 41.4838C37.445 42.0291 37.5464 42.5618 37.6606 42.9232C37.6669 42.9422 37.6732 42.9612 37.6796 42.9803C38.1298 44.0709 38.7639 45.0981 39.7277 46.3219L39.734 46.3283C41.4841 48.4842 43.3294 50.1645 45.3648 51.4517C45.6248 51.6166 45.8911 51.7498 46.1447 51.8766C46.373 51.9907 46.5886 52.0985 46.7725 52.2126C46.7978 52.2253 46.8232 52.2443 46.8486 52.257C47.0642 52.3648 47.2671 52.4155 47.4763 52.4155C48.0026 52.4155 48.3323 52.0858 48.4401 51.978L50.6087 49.8094C50.8243 49.5938 51.1667 49.3339 51.5662 49.3339C51.9594 49.3339 52.2827 49.5812 52.4793 49.7967C52.4856 49.8031 52.4856 49.8031 52.492 49.8094L55.9858 53.3033C56.639 53.9501 56.639 54.6158 55.9922 55.288Z" fill="#CB3B48"/>
<path d="M46.2143 37.1466C47.8756 37.4256 49.3848 38.2119 50.5896 39.4167C51.7943 40.6215 52.5743 42.1306 52.8596 43.7919C52.9294 44.2104 53.2908 44.5021 53.703 44.5021C53.7537 44.5021 53.7981 44.4958 53.8488 44.4894C54.318 44.4133 54.6287 43.9695 54.5526 43.5002C54.2102 41.4902 53.2591 39.6576 51.807 38.2056C50.3549 36.7535 48.5224 35.8024 46.5123 35.4599C46.0431 35.3839 45.6056 35.6946 45.5232 36.1574C45.4407 36.6203 45.7451 37.0705 46.2143 37.1466Z" fill="#CB3B48"/>
<path d="M59.9869 43.2529C59.4226 39.9429 57.8627 36.931 55.4658 34.5341C53.0689 32.1373 50.057 30.5774 46.747 30.0131C46.2842 29.9306 45.8466 30.2477 45.7642 30.7106C45.6881 31.1798 45.9988 31.6173 46.468 31.6997C49.4229 32.2007 52.1178 33.602 54.261 35.7389C56.4043 37.8821 57.7993 40.577 58.3002 43.5319C58.37 43.9504 58.7314 44.2421 59.1435 44.2421C59.1943 44.2421 59.2387 44.2357 59.2894 44.2294C59.7523 44.1597 60.0693 43.7158 59.9869 43.2529Z" fill="#CB3B48"/>
</g>
<defs>
<filter id="filter0_d" x="0" y="0" width="89.9999" height="90.0437" filterUnits="userSpaceOnUse" color-interpolation-filters="sRGB">
<feFlood flood-opacity="0" result="BackgroundImageFix"/>
<feColorMatrix in="SourceAlpha" type="matrix" values="0 0 0 0 0 0 0 0 0 0 0 0 0 0 0 0 0 0 127 0" result="hardAlpha"/>
<feOffset/>
<feGaussianBlur stdDeviation="15"/>
<feColorMatrix type="matrix" values="0 0 0 0 0.741176 0 0 0 0 0.176471 0 0 0 0 0.262745 0 0 0 1 0"/>
<feBlend mode="normal" in2="BackgroundImageFix" result="effect1_dropShadow"/>
<feBlend mode="normal" in="SourceGraphic" in2="effect1_dropShadow" result="shape"/>
</filter>
</defs>
</svg>
