<svg width="25" height="22" viewBox="0 0 25 22" fill="none" xmlns="http://www.w3.org/2000/svg">
<path d="M6.60262 12.5876L6.67798 12.8214L8.90764 19.7394L8.90769 19.7395C8.92319 19.7877 8.96206 19.8276 9.02361 19.8455C9.0854 19.8635 9.14912 19.8524 9.1991 19.813L9.19965 19.8126L12.4107 17.2871L12.4108 17.287C12.921 16.886 13.6424 16.8666 14.1743 17.2391L14.1744 17.2392L19.9659 21.2958L19.9661 21.296C20.0205 21.3342 20.087 21.3408 20.1483 21.318C20.2092 21.2953 20.2435 21.2526 20.2539 21.2042L20.2539 21.204L24.4964 1.51543L6.60262 12.5876ZM6.60262 12.5876L6.37148 12.5043M6.60262 12.5876L6.37148 12.5043M6.37148 12.5043L0.611572 10.4303C0.611407 10.4302 0.611242 10.4301 0.611078 10.4301C0.56265 10.4125 0.538234 10.3883 0.52457 10.3683C0.509277 10.3459 0.500183 10.3176 0.500003 10.2869C0.499823 10.2562 0.508575 10.228 0.523385 10.2058C0.536621 10.186 0.560617 10.1617 0.609184 10.1436L0.609228 10.1436L24.2505 1.34471L24.2509 1.34457M6.37148 12.5043L24.2509 1.34457M24.2509 1.34457C24.3237 1.31741 24.3927 1.33364 24.4428 1.37461M24.2509 1.34457L24.4428 1.37461M7.8166 11.441L7.817 11.4407L19.0752 4.75103L19.0757 4.7507C19.4224 4.54533 19.7943 4.67926 19.9824 4.91755C20.0753 5.03517 20.1387 5.19352 20.1317 5.37079C20.1244 5.55743 20.0401 5.72835 19.9008 5.85303L10.6102 14.1849C10.3694 14.4012 10.2173 14.6873 10.1743 14.9941L9.85793 17.2563L7.8166 11.441ZM7.8166 11.441C7.19619 11.8104 6.89105 12.5446 7.09767 13.2426C7.0977 13.2427 7.09773 13.2428 7.09776 13.2429L8.31485 17.3688L8.31492 17.369M7.8166 11.441L8.31492 17.369M8.31492 17.369C8.43656 17.7806 8.81486 17.951 9.12972 17.9292M8.31492 17.369L9.12972 17.9292M24.4428 1.37461C24.4917 1.41466 24.5075 1.4637 24.4965 1.5152L24.4428 1.37461ZM9.12972 17.9292C9.44536 17.9074 9.79819 17.6849 9.85785 17.2569L9.12972 17.9292ZM19.2335 5.1082L19.2333 5.10843C19.2335 5.10823 19.2337 5.10804 19.2339 5.10785L19.2335 5.1082Z" stroke="white"/>
</svg>
