<svg width="23" height="28" viewBox="0 0 23 28" fill="none" xmlns="http://www.w3.org/2000/svg">
<path d="M11.326 13.2796C13.1504 13.2796 14.7302 12.6252 16.0209 11.3343C17.3117 10.0435 17.966 8.46415 17.966 6.63957C17.966 4.81563 17.3117 3.23608 16.0207 1.94489C14.7297 0.654324 13.1502 0 11.326 0C9.50145 0 7.92211 0.654324 6.63134 1.9451C5.34057 3.23587 4.68604 4.81542 4.68604 6.63957C4.68604 8.46415 5.34057 10.0437 6.63155 11.3345C7.92253 12.625 9.50208 13.2796 11.326 13.2796V13.2796Z" fill="white"/>
<path d="M22.9443 21.1984C22.907 20.6612 22.8317 20.0752 22.7209 19.4565C22.609 18.833 22.4649 18.2437 22.2925 17.7051C22.1143 17.1483 21.872 16.5985 21.5725 16.0717C21.2617 15.5248 20.8965 15.0487 20.4868 14.6568C20.0584 14.2469 19.5338 13.9173 18.9272 13.6769C18.3228 13.4378 17.6529 13.3166 16.9363 13.3166C16.6549 13.3166 16.3827 13.4321 15.8571 13.7743C15.5336 13.9852 15.1553 14.2292 14.7329 14.4991C14.3718 14.7292 13.8826 14.9448 13.2783 15.1399C12.6888 15.3307 12.0902 15.4274 11.4994 15.4274C10.9086 15.4274 10.3102 15.3307 9.72001 15.1399C9.11637 14.945 8.62716 14.7294 8.26645 14.4993C7.84811 14.232 7.46952 13.988 7.1412 13.7741C6.61623 13.4319 6.34386 13.3164 6.06244 13.3164C5.34565 13.3164 4.67597 13.4378 4.0717 13.6771C3.46554 13.9171 2.94078 14.2467 2.51192 14.657C2.10242 15.0491 1.73708 15.525 1.42664 16.0717C1.12735 16.5985 0.885052 17.1481 0.706696 17.7053C0.534439 18.2439 0.390365 18.833 0.278472 19.4565C0.16763 20.0744 0.0923332 20.6606 0.0551055 21.199C0.0185087 21.7265 0 22.274 0 22.8269C0 24.266 0.457459 25.431 1.35955 26.2902C2.25049 27.138 3.42937 27.5681 4.86295 27.5681H18.137C19.5706 27.5681 20.7491 27.1382 21.6402 26.2902C22.5425 25.4316 23 24.2664 23 22.8267C22.9998 22.2712 22.9811 21.7234 22.9443 21.1984V21.1984Z" fill="white"/>
</svg>
