<svg width="26" height="26" viewBox="0 0 26 26" fill="none" xmlns="http://www.w3.org/2000/svg">
<path d="M2.86189 20.0536L2.94397 19.8089L2.79204 19.6002C1.34878 17.6182 0.5 15.1776 0.5 12.5429C0.5 5.90149 5.90017 0.5 12.5397 0.5H12.546C19.1855 0.5 24.5857 5.90302 24.5857 12.5429C24.5857 19.1827 19.1855 24.5857 12.546 24.5857C10.0961 24.5857 7.82581 23.8574 5.92199 22.5962L5.72205 22.4637L5.49361 22.5368L1.61267 23.7774L2.86189 20.0536ZM20.3157 17.879L20.3158 17.8787C20.4814 17.4102 20.5658 16.9725 20.5963 16.6224C20.6115 16.4479 20.6139 16.288 20.6039 16.1521C20.5957 16.0419 20.5754 15.8689 20.4944 15.7256L20.4944 15.7256L20.4925 15.7223C20.3739 15.5163 20.1816 15.4003 20.0532 15.3302C19.9759 15.2879 19.8708 15.2372 19.7661 15.1866C19.7028 15.156 19.6396 15.1255 19.5827 15.0969L19.5812 15.0961C19.3958 15.0039 18.8538 14.7356 18.3151 14.4754C17.8006 14.2269 17.2397 13.9613 17.0299 13.8869C16.8005 13.8013 16.5313 13.757 16.2527 13.8295C15.9652 13.9043 15.7311 14.0869 15.5518 14.3399C15.5028 14.4085 15.4546 14.4762 15.4073 14.5427C15.1016 14.9723 14.8326 15.3504 14.6143 15.5862C14.5928 15.6087 14.558 15.6296 14.5004 15.6374C14.4393 15.6457 14.3626 15.6371 14.2865 15.6055L14.0951 16.0673L14.2875 15.6059C14.2541 15.592 14.2161 15.5767 14.1738 15.5596C13.7062 15.3708 12.7081 14.9677 11.4862 13.8799L11.4862 13.8799C10.4632 12.9693 9.75893 11.8247 9.55043 11.4723C9.53665 11.4483 9.52993 11.4318 9.52672 11.4223C9.52689 11.422 9.52705 11.4217 9.52723 11.4214C9.53136 11.4138 9.53795 11.4032 9.54838 11.3886C9.57129 11.3565 9.59853 11.3245 9.64357 11.2715L9.64694 11.2676L9.64706 11.2677L9.65491 11.2579C9.7354 11.1584 9.81524 11.0713 9.90338 10.9774C9.91703 10.9629 9.93102 10.948 9.9453 10.9328C10.0208 10.8527 10.1046 10.7638 10.1893 10.6661C10.2019 10.6517 10.2142 10.6375 10.2265 10.6234C10.3902 10.4354 10.5276 10.2777 10.6668 9.98303C10.9032 9.51418 10.7107 9.06591 10.6156 8.86856C10.558 8.7466 10.1973 7.8714 9.8772 7.09467C9.7321 6.74263 9.59535 6.41082 9.49894 6.17853L9.49849 6.17746C9.36819 5.86557 9.21315 5.59551 8.95941 5.42973C8.71472 5.26986 8.44827 5.25898 8.28249 5.25221C8.27609 5.25195 8.26984 5.25169 8.26375 5.25143C8.2531 5.2509 8.24221 5.25035 8.23109 5.24978C8.11555 5.24392 7.97505 5.23679 7.82048 5.23679C7.26761 5.23679 6.61308 5.39563 6.18081 5.83686L6.18071 5.83696C6.1704 5.84748 6.15964 5.85844 6.14845 5.86982C5.73731 6.28814 4.75546 7.28714 4.75546 9.23939C4.75546 10.2519 5.12155 11.2189 5.48784 11.941C5.83798 12.6313 6.20915 13.1375 6.32395 13.294C6.33043 13.3029 6.3361 13.3106 6.3409 13.3172L6.34081 13.3172L6.34707 13.3255C6.34705 13.3254 6.3471 13.3255 6.3472 13.3256C6.3479 13.3266 6.35153 13.3315 6.35967 13.3431L6.39375 13.3921C6.39914 13.3999 6.4049 13.4083 6.41102 13.4172C6.43654 13.4541 6.46828 13.5001 6.5052 13.553C6.59722 13.6848 6.72281 13.8616 6.88002 14.0718C7.19421 14.4917 7.63488 15.0448 8.1884 15.6396C9.2906 16.824 10.8629 18.1984 12.7983 19.0003C14.2556 19.6044 15.2312 19.8916 15.9428 20.0044C16.6758 20.1207 17.1178 20.0498 17.487 19.9712L17.4884 19.9709C18.0325 19.8534 18.6311 19.5982 19.1396 19.254C19.6391 18.916 20.1136 18.4496 20.3157 17.879Z" stroke="white"/>
</svg>
